<svg id="Capa_1" enable-background="new 0 0 443.294 443.294" height="512" viewBox="0 0 443.294 443.294" width="512" xmlns="http://www.w3.org/2000/svg"><path d="m429.441 221.647h-41.559v-96.971c0-3.68-1.461-7.197-4.058-9.794l-110.824-110.824c-2.597-2.597-6.115-4.058-9.794-4.058h-180.088c-15.274 0-27.706 12.432-27.706 27.706v193.941h-41.559c-7.657 0-13.853 6.196-13.853 13.853v166.235c0 22.917 18.642 41.559 41.559 41.559h360.176c22.917 0 41.559-18.642 41.559-41.559v-166.235c0-7.657-6.196-13.853-13.853-13.853zm-152.382-174.352 63.529 63.529h-63.529zm-193.941-19.589h166.235v83.118c0 15.273 12.432 27.706 27.706 27.706h83.118v83.118h-13.853c-3.152 0-6.196 1.069-8.658 3.03l-65.463 52.381h-101.11l-65.463-52.381c-2.462-1.962-5.506-3.03-8.658-3.03h-13.854c0-.001 0-193.942 0-193.942zm332.47 374.029c0 7.643-6.209 13.853-13.853 13.853h-360.176c-7.643 0-13.853-6.209-13.853-13.853v-152.382h64.408l65.463 52.381c2.462 1.962 5.506 3.03 8.658 3.03h110.824c3.152 0 6.196-1.069 8.658-3.03l65.463-52.381h64.408z"/></svg>